<svg xmlns="http://www.w3.org/2000/svg" id="Layer_2" viewBox="0 0 421.24 159.01"><defs><style>.cls-1{fill:#fff;}.cls-2{fill:#d01317;}.cls-3{fill:#040202;}</style></defs><g id="Layer_2-2"><path d="m1,118.4V1h49.7c24.6,0,39.3,11.6,39.3,31,0,10.8-4.3,19.7-12.2,25.2,11.2,4.7,17.5,15.1,17.5,28.9,0,20.8-14.8,32.3-41.7,32.3.1,0-52.6,0-52.6,0Zm51.5-18.8c14.4,0,21.4-5.1,21.4-15.7s-7-15.7-21.4-15.7h-30.2v31.3l30.2.1h0Zm-3.9-50c9.1,0,19.9-2.6,19.9-14.8,0-9.9-6.7-15-19.9-15h-26.3v29.8h26.3Z"/><path class="cls-2" d="m50.7,2c24.9,0,38.3,11.7,38.3,30,0,11.9-5.3,20.6-13.4,25.4,11.2,3.9,18.7,13.6,18.7,28.6,0,19.8-13.9,31.3-40.7,31.3H2V2h48.7m-29.4,48.6h27.3c13.4,0,20.9-5.3,20.9-15.8s-7.6-16-20.9-16h-27.3v31.8m0,50h31.2c14.6,0,22.4-5.1,22.4-16.7s-7.9-16.7-22.4-16.7h-31.2v33.4M50.7,0H0v119.4h53.7c13.6,0,24.3-2.9,31.6-8.7,7.3-5.8,11-14.1,11-24.7,0-13.5-6-23.9-16.6-29.1,7.2-5.7,11.2-14.6,11.2-25,.1-19.9-15-31.9-40.2-31.9h0Zm-27.4,20.8h25.3c12.6,0,18.9,4.7,18.9,14s-6.4,13.8-18.9,13.8h-25.3v-27.8h0Zm0,48.5h29.2c18.3,0,20.4,8.4,20.4,14.7s-2.1,14.7-20.4,14.7h-29.2v-29.4h0Z"/><path d="m216.61,78.27V29.14h15c15.66,0,23.58,8.24,23.58,24.4s-7.91,24.9-23.58,24.9h-15v-.16Zm14.84-7.26c6.27,0,10.39-1.48,12.53-4.45,2.31-2.97,3.46-7.42,3.46-13.03s-1.15-9.73-3.3-12.7-6.43-4.29-12.7-4.29h-7.26v34.63l7.26-.16h0Z"/><path class="cls-2" d="m231.62,29.96c15.17,0,22.75,7.91,22.75,23.58s-7.58,24.07-22.75,24.07h-14.18V29.96h14.18m-8.24,41.88h8.08c6.43,0,10.88-1.65,13.36-4.78,2.31-3.3,3.46-7.75,3.46-13.52s-1.15-10.06-3.46-13.19c-2.31-3.13-6.76-4.62-13.36-4.62h-8.08v36.11m8.24-43.53h-15.83v50.79h15.83c16.16,0,24.4-8.57,24.4-25.72s-8.41-25.06-24.4-25.06h0Zm-6.6,8.9h6.43c5.94,0,9.89,1.32,12.04,3.96,2.14,2.8,3.13,6.93,3.13,12.2s-1.15,9.73-3.13,12.53c-1.98,2.8-6.1,4.12-11.87,4.12h-6.43l-.16-32.81h0Z"/><path d="m265.42,78.27v-36.11h8.24v3.3c2.64-2.8,5.44-4.12,8.74-4.12.99,0,1.98.16,3.13.33l.66.16v7.91l-.99-.33c-.82-.16-2.14-.33-3.79-.33-2.97,0-5.44,1.48-7.75,4.29v24.9h-8.24Z"/><path class="cls-2" d="m282.4,42.17c.99,0,1.98,0,2.97.33v6.1c-.99-.33-2.31-.33-3.96-.33-3.3,0-6.1,1.65-8.57,4.95v24.4h-6.6v-34.79h6.6v4.78c2.8-3.63,5.94-5.44,9.56-5.44m0-1.65c-2.8,0-5.44.99-7.91,2.97v-2.14h-9.89v37.76h9.89v-25.56c1.98-2.47,4.29-3.79,6.93-3.79,1.98,0,2.97.16,3.46.33l2.14.66v-9.73l-1.32-.16c-1.15-.33-2.31-.33-3.3-.33h0Z"/><path d="m302.52,78.93c-3.63,0-6.76-.99-9.07-2.97-2.47-1.98-3.63-4.62-3.63-7.75,0-8.57,7.42-12.86,21.93-12.86h2.14c0-1.98-.16-3.46-.33-4.29s-.82-1.65-1.81-2.31-2.8-.99-5.28-.99c-4.95,0-7.58,1.65-7.75,5.11v.82h-7.91v-.82c.49-7.58,5.77-11.38,15.83-11.38,4.62,0,8.24.99,10.88,2.8,2.64,1.98,4.12,5.61,4.12,11.05v23.08h-7.75v-2.64c-3.13,1.98-6.93,3.13-11.38,3.13h0Zm7.91-17.48c-8.57,0-12.7,2.14-12.7,6.43,0,1.48.49,2.64,1.65,3.3,1.15.82,2.8,1.32,4.78,1.32,1.81,0,3.79-.49,5.61-1.32,1.65-.82,2.97-1.81,3.96-3.3v-6.6l-3.3.16h0Z"/><path class="cls-2" d="m306.64,42.16c4.45,0,7.91.82,10.39,2.64s3.79,5.28,3.79,10.39v22.26h-6.1v-3.46c-3.13,2.97-7.26,4.29-12.2,4.29-3.46,0-6.27-.99-8.57-2.8-2.31-1.81-3.3-4.29-3.3-7.09,0-8.08,6.93-12.04,21.11-12.04h2.97c0-2.47-.16-4.29-.33-5.44s-.99-1.98-2.14-2.8c-1.15-.82-3.13-1.15-5.77-1.15-5.61,0-8.41,1.98-8.57,5.77h-6.1c.33-7.09,5.28-10.55,14.84-10.55m-2.31,31.16c1.98,0,3.96-.49,5.94-1.32,1.81-.82,3.46-2.14,4.45-3.63v-7.58h-4.29c-8.9,0-13.52,2.47-13.52,7.26,0,1.81.66,3.13,1.98,3.96,1.32.82,3.13,1.32,5.44,1.32m2.31-32.81c-13.19,0-16.32,6.6-16.65,12.2l-.16,1.81h9.56v-1.65c0-1.32.16-4.29,6.93-4.29,2.8,0,4.29.49,4.95.82.82.49,1.32,1.15,1.48,1.81.16.49.33,1.48.33,3.3h-1.32c-15,0-22.75,4.62-22.75,13.69,0,3.46,1.32,6.27,3.96,8.41,2.47,2.14,5.77,3.13,9.56,3.13,4.12,0,7.58-.99,10.55-2.64v1.98h9.4v-24.07c0-5.61-1.48-9.56-4.45-11.71-2.8-1.81-6.6-2.8-11.38-2.8h0Zm-2.31,31.16c-1.81,0-3.3-.33-4.29-1.15-.82-.66-1.32-1.48-1.32-2.64,0-1.32,0-5.61,11.87-5.61h2.64v5.44c-.82,1.15-2.14,1.98-3.63,2.8-1.81.82-3.63,1.15-5.28,1.15h0Z"/><path d="m330.55,78.27v-36.11h8.24v36.11h-8.24Zm0-40.89v-8.24h8.24v8.24h-8.24Z"/><path class="cls-2" d="m337.8,29.96v6.6h-6.6v-6.6h6.6m0,13.03v34.46h-6.6v-34.46h6.6m1.65-14.68h-9.89v9.89h9.89v-9.89h0Zm0,13.03h-9.89v37.76h9.89v-37.76h0Z"/><path d="m372.43,78.11v-23.08c0-2.64-.49-4.45-1.48-5.44-.82-.99-2.47-1.65-4.62-1.65-2.97,0-6.1,1.65-9.07,4.95v25.23h-8.24v-36.11h8.24v3.3c2.97-2.64,6.43-4.12,10.06-4.12,8.74,0,13.19,4.62,13.19,13.52v23.25c.16.16-8.08.16-8.08.16Z"/><path class="cls-2" d="m367.48,42.17c8.24,0,12.37,4.29,12.37,12.7v22.59h-6.6v-22.42c0-2.8-.49-4.78-1.65-6.1s-2.8-1.81-5.28-1.81c-3.3,0-6.6,1.81-9.89,5.44v24.57h-6.6v-34.3h6.6v4.45c3.3-3.46,6.93-5.11,11.05-5.11m0-1.65c-3.3,0-6.43.99-9.23,3.13v-2.31h-9.89v37.76h9.89v-25.89c2.8-2.97,5.61-4.45,8.24-4.45,1.98,0,3.3.49,3.96,1.32.82.82,1.15,2.64,1.15,4.95v23.91h9.89v-24.24c0-9.23-4.95-14.18-14.02-14.18h0Z"/><path d="m404.58,78.51c-10.55,0-15.99-3.96-16.49-11.87v-.82h8.24v.82c0,1.32,0,5.44,8.24,5.44,2.47,0,4.45-.49,5.61-1.48,1.15-.82,1.81-1.98,1.81-3.3s-.49-1.98-1.65-2.47c-1.32-.66-4.12-1.48-8.41-2.47-4.45-.99-7.58-2.14-9.73-3.46-2.31-1.32-3.3-3.79-3.3-7.26,0-3.13,1.32-5.77,4.12-7.75,2.64-1.98,6.1-2.97,10.39-2.97,10.06,0,15.33,3.46,15.5,10.39v.82h-8.08v-.82c0-.99-.33-4.12-6.93-4.12-1.98,0-3.79.33-5.11,1.15-1.15.66-1.65,1.48-1.65,2.64,0,.99.33,1.65,1.15,2.14.66.33,2.64,1.15,8.08,2.31,4.45.99,7.91,2.31,10.06,3.63,2.47,1.48,3.63,4.12,3.63,7.58s-1.48,6.27-4.29,8.41c-2.64,2.31-6.43,3.46-11.21,3.46h0Z"/><path class="cls-2" d="m403.43,41.74c9.56,0,14.51,3.3,14.67,9.56h-6.43c-.16-3.3-2.8-4.95-7.75-4.95-2.14,0-3.96.33-5.44,1.15s-2.14,1.98-2.14,3.46c0,1.32.49,2.31,1.65,2.97,1.15.66,3.96,1.32,8.24,2.47s7.75,2.14,9.89,3.46,3.3,3.63,3.3,6.93-1.32,5.77-3.96,7.75-6.27,3.13-10.72,3.13c-10.06,0-15.17-3.63-15.66-11.05h6.6c0,4.12,3.13,6.27,9.07,6.27,2.64,0,4.78-.49,6.1-1.48,1.48-.99,2.14-2.31,2.14-3.96s-.66-2.64-2.14-3.3-4.29-1.48-8.57-2.47-7.42-2.14-9.4-3.46-2.97-3.46-2.97-6.6c0-2.8,1.32-5.28,3.63-7.09,2.47-1.98,5.77-2.8,9.89-2.8m0-1.65c-4.45,0-8.24.99-10.88,3.13-2.97,2.14-4.29,4.95-4.29,8.41,0,3.79,1.32,6.43,3.79,8.08,2.14,1.32,5.44,2.47,9.89,3.63,5.28,1.32,7.42,1.98,8.24,2.31s1.15.82,1.15,1.81-.49,1.81-1.48,2.64c-1.15.82-2.8,1.32-5.11,1.32-7.42,0-7.42-3.3-7.42-4.62v-1.65h-9.89l.16,1.81c.33,5.77,3.63,12.7,17.31,12.7,4.78,0,8.74-1.15,11.71-3.46,3.13-2.31,4.62-5.44,4.62-9.07s-1.32-6.6-3.96-8.41c-2.31-1.48-5.77-2.64-10.39-3.79-5.61-1.32-7.42-1.98-7.91-2.31s-.82-.66-.82-1.48c0-.66.16-1.32,1.32-1.98,1.15-.66,2.8-.99,4.62-.99,5.94,0,6.1,2.47,6.1,3.3l.16,1.48h9.73v-1.65c-.33-5.11-3.3-11.21-16.65-11.21h0Z"/><path class="cls-3" d="m105.9,118.4V1h51c3.3,0,6.5.4,9.7,1.2,17,4.4,28.9,19.7,28.9,37.3s-11.4,32.2-27.7,37c-3.5,1-7.2,1.6-10.8,1.6h-28.2v40.3h-22.9Zm50.4-62.3c9.1,0,16.5-7.4,16.5-16.5s-7.4-16.6-16.5-16.6h-27.6v33c0,.1,27.6.1,27.6.1Z"/><path class="cls-2" d="m156.9,2c3.3,0,6.4.4,9.4,1.2,16.2,4.2,28.1,18.9,28.1,36.4s-11.4,31.5-27,36c-3.4,1-6.9,1.5-10.6,1.5h-29.2v40.3h-20.8V2h50.1m-29.2,55.1h28.6c9.7,0,17.5-7.8,17.5-17.5s-7.8-17.6-17.5-17.6h-28.6v35.1M156.9,0h-52v119.4h24.8v-40.3h27.2c3.8,0,7.5-.5,11.1-1.6,16.7-4.9,28.4-20.5,28.4-38S184.3,5.8,166.8,1.3c-3.2-.9-6.5-1.3-9.9-1.3h0Zm-27.2,24h26.6c8.6,0,15.5,7,15.5,15.5s-7,15.5-15.5,15.5h-26.6v-31h0Z"/><path class="cls-1" d="m241.57,123.47c0-9.8-8-17.8-17.8-17.8s-17.8,8-17.8,17.8c0,2.6.6,5,1.5,7.2l1.6-.7c-.9-2-1.4-4.2-1.4-6.5,0-8.9,7.2-16.1,16.1-16.1s16.1,7.2,16.1,16.1-7.2,16.1-16.1,16.1c-5,0-9.5-2.3-12.4-5.9l-1.4,1c3.3,4,8.2,6.6,13.8,6.6,9.8,0,17.8-8,17.8-17.8h0Z"/><path class="cls-2" d="m200.27,123.47c0,13,10.6,23.6,23.6,23.6,2.1,0,4.1-.3,6-.8l-.9-1.6c-1.6.4-3.4.6-5.1.6-12.1,0-21.8-9.8-21.8-21.8s9.8-21.8,21.8-21.8,21.8,9.8,21.8,21.8c0,7.6-3.9,14.4-9.9,18.3l.8,1.5c6.5-4.2,10.8-11.5,10.8-19.8,0-13-10.6-23.6-23.6-23.6s-23.5,10.6-23.5,23.6Z"/><path class="cls-1" d="m223.77,93.87c-2.1,0-4.1.2-6.1.6v1.8c1.9-.4,4-.7,6.1-.7,15.3,0,27.8,12.4,27.8,27.8s-12.4,27.8-27.8,27.8-27.8-12.4-27.8-27.8c0-10.3,5.6-19.3,14-24.1l-1-1.4c-8.8,5.1-14.7,14.6-14.7,25.5,0,16.3,13.2,29.5,29.5,29.5s29.5-13.2,29.5-29.5-13.2-29.4-29.5-29.5h0Z"/><path class="cls-2" d="m256.77,110.07c-.5.3-1,.6-1.5.9,1.8,4.7,2.7,9.8,2.3,15.2-1.3,16.9-15.3,30.4-32.2,31.1-20,.9-36.4-15.6-35.4-35.7.9-17.2,14.8-31.1,31.9-32,11.1-.6,21.1,4.2,27.7,11.9l1.3-1.1c-7.2-8.5-18.4-13.6-30.6-12.4-17.4,1.6-31.2,16.1-32.1,33.5-1.1,21.5,17,39.3,38.6,37.4,16.8-1.4,30.4-14.6,32.3-31.3.8-6.2-.1-12.2-2.3-17.5Z"/><rect class="cls-1" x="271.37" y="149.77" width="132.97" height="3"/><rect class="cls-1" x="43.2" y="149.77" width="132.97" height="3"/></g></svg>